:SAMPLES-PER-SECOND 30
:FULLY-SPECIFIED
:DEGREES
232
root  17.7135 38.2246 -5.36377 -161.051 -76.7979 163.151
RightUpLeg  -29.7704 -19.3383 -10.3356
RightLeg  27.1335 6.8848 3.59508
RightFoot  -18.0262 0.728403 14.5079
RightToes  0.00048216 0.542163 -0.142577
Spine  42.7705 -4.13752 -0.0233075
Spine1  12.4958 -6.48655 6.05473
HEad  -40.0189 -3.50314 -1.63981
LeftShoulder1  10.9166 -19.4387 -41.2161
LeftArm  -13.137 -6.54028 -24.7977
LeftForeArm  55.6902 -63.6691 -17.1212
LeftHand  -0.25398 0.0180481 5.50724
RightShoulder  6.49211 11.7106 36.6669
RightArm  -5.16246 18.0288 22.6112
RightForeArm  11.9968 48.4951 11.8162
RightHand  -2.06092 8.15918 -17.9575
LeftUpLeg  -27.5219 18.0844 -1.26673
LeftLeg  32.0443 8.16456 5.83043
LeftFoot  -14.692 -0.0727858 -5.49456
LeftToes  1.06241e-005 4.65855e-005 -8.18508e-006
233
root  17.4772 38.3846 -5.69552 -162.704 -77.1856 164.074
RightUpLeg  -27.9358 -20.3673 -9.93779
RightLeg  26.5938 6.26918 3.18011
RightFoot  -18.3431 0.775423 14.6466
RightToes  0.00048216 0.542163 -0.142577
Spine  41.3721 -4.07242 -0.805218
Spine1  11.8361 -6.05799 3.95651
HEad  -41.0257 -2.70473 -3.7031
LeftShoulder1  10.9764 -19.3631 -41.61
LeftArm  -13.7718 -2.93645 -22.7193
LeftForeArm  53.6706 -61.8239 -15.803
LeftHand  -0.25398 0.0180481 5.50724
RightShoulder  6.66566 11.9607 37.0858
RightArm  -1.38088 16.9505 23.6317
RightForeArm  14.1135 53.5 14.128
RightHand  -1.73949 7.13449 -16.4305
LeftUpLeg  -25.6111 18.4309 -0.0951087
LeftLeg  31.0737 7.87455 5.44611
LeftFoot  -14.787 -0.0920206 -5.99743
LeftToes  1.06241e-005 4.65855e-005 -8.18508e-006
234
root  17.187 38.5773 -6.06392 -164.172 -77.144 165.098
RightUpLeg  -26.2469 -20.9365 -9.54295
RightLeg  25.6452 6.07872 2.94911
RightFoot  -18.2728 0.783401 14.912
RightToes  0.00048216 0.542163 -0.142577
Spine  39.6969 -3.81698 -1.69256
Spine1  10.9883 -5.37982 1.66957
HEad  -41.6623 -1.95172 -5.52208
LeftShoulder1  11.0348 -19.2523 -42.0695
LeftArm  -14.4354 0.562154 -20.7471
LeftForeArm  51.6976 -59.0417 -14.0305
LeftHand  -0.25398 0.0180481 5.50724
RightShoulder  6.83322 12.1955 37.4941
RightArm  2.87872 15.3927 24.6674
RightForeArm  17.6199 58.7095 17.1818
RightHand  -1.29621 5.68124 -13.9008
LeftUpLeg  -23.7178 18.6993 0.993326
LeftLeg  29.8238 7.75839 5.13344
LeftFoot  -14.9169 -0.106981 -6.28493
LeftToes  1.06241e-005 4.65855e-005 -8.18508e-006
235
root  16.8545 38.779 -6.45883 -165.243 -76.7883 165.981
RightUpLeg  -24.7305 -20.5138 -9.24342
RightLeg  24.4368 6.51929 3.00892
RightFoot  -18.0508 0.790458 15.5072
RightToes  0.00048216 0.542163 -0.142577
Spine  37.6915 -3.38396 -2.63867
Spine1  10.1042 -4.54354 -0.534107
HEad  -42.0636 -1.55768 -7.3093
LeftShoulder1  11.0389 -19.0936 -42.4053
LeftArm  -15.2041 3.6817 -19.181
LeftForeArm  48.9599 -55.0785 -11.9852
LeftHand  -0.25398 0.0180481 5.50724
RightShoulder  6.9741 12.4083 37.7858
RightArm  7.24852 13.5215 25.614
RightForeArm  23.3011 63.9687 21.3371
RightHand  -0.831547 4.06389 -10.5099
LeftUpLeg  -21.8825 18.7708 1.9521
LeftLeg  28.253 7.87813 4.91176
LeftFoot  -14.5683 -0.0925635 -6.37369
LeftToes  1.06241e-005 4.65855e-005 -8.18508e-006
236
root  16.4842 38.9667 -6.85535 -166.516 -76.4942 167.15
RightUpLeg  -23.2167 -19.3611 -8.90841
RightLeg  22.9286 6.98304 3.01768
RightFoot  -16.4665 0.610881 16.0826
RightToes  0.00048216 0.542163 -0.142577
Spine  35.6686 -3.08449 -3.25449
Spine1  9.00329 -3.73054 -2.75847
HEad  -42.1618 -1.59712 -8.77644
LeftShoulder1  10.9709 -18.8274 -42.6669
LeftArm  -16.0441 6.2549 -17.8368
LeftForeArm  45.1636 -49.8924 -9.89994
LeftHand  -0.25398 0.0180481 5.50724
RightShoulder  7.11124 12.6218 38.0451
RightArm  11.5639 11.2406 26.4764
RightForeArm  31.3993 69.06 27.2927
RightHand  -0.431291 2.53556 -6.55445
LeftUpLeg  -20.0428 18.6456 2.98208
LeftLeg  26.4114 7.9435 4.61435
LeftFoot  -13.187 -0.0252986 -6.48377
LeftToes  1.06241e-005 4.65855e-005 -8.18508e-006
237
root  16.0808 39.1218 -7.23328 -168.328 -76.4423 168.842
RightUpLeg  -21.7449 -18.0984 -8.38817
RightLeg  21.2524 7.03482 2.7999
RightFoot  -12.5773 0.0903718 15.894
RightToes  0.00048216 0.542163 -0.142577
Spine  33.7488 -3.00332 -3.50857
Spine1  7.74979 -3.0874 -4.90588
HEad  -41.8163 -1.87131 -9.7279
LeftShoulder1  10.864 -18.4195 -43.0673
LeftArm  -16.6903 8.27176 -16.3932
LeftForeArm  40.6397 -43.8551 -8.00497
LeftHand  -0.25398 0.0180481 5.50724
RightShoulder  7.21539 12.8016 38.1911
RightArm  15.7455 8.72587 27.4051
RightForeArm  42.331 73.5368 35.8589
RightHand  -0.114313 1.14703 -2.14146
LeftUpLeg  -18.2269 18.5069 4.19297
LeftLeg  24.521 7.58126 4.10353
LeftFoot  -10.9065 0.091773 -6.81209
LeftToes  1.06241e-005 4.65855e-005 -8.18508e-006
238
root  15.6593 39.2434 -7.58545 -170.345 -76.5402 170.675
RightUpLeg  -20.3915 -16.9712 -7.79551
RightLeg  19.8534 6.73877 2.48329
RightFoot  -8.03946 -0.482846 14.7968
RightToes  0.00048216 0.542163 -0.142577
Spine  31.8025 -2.95169 -3.74733
Spine1  6.74316 -2.607 -6.6429
HEad  -41.1135 -2.18216 -10.4535
LeftShoulder1  10.7649 -17.9514 -43.6425
LeftArm  -16.8357 9.97421 -14.897
LeftForeArm  35.9055 -37.7869 -6.4802
LeftHand  -0.25398 0.0180481 5.50724
RightShoulder  7.22484 12.8595 38.0951
RightArm  19.5246 6.40643 28.4411
RightForeArm  56.7249 76.9874 47.6067
RightHand  0.104339 -0.0340381 2.27833
LeftUpLeg  -16.4653 18.559 5.45404
LeftLeg  22.7952 6.90305 3.51179
LeftFoot  -8.383 0.234963 -7.16215
LeftToes  1.06241e-005 4.65855e-005 -8.18508e-006
